<mxfile host="app.diagrams.net" modified="2024-04-06T21:38:00.977Z" agent="Mozilla/5.0 (X11; Linux x86_64) AppleWebKit/537.36 (KHTML, like Gecko) Chrome/123.0.0.0 Safari/537.36" version="24.2.0" etag="dMBn6FSi63nrfOFS5g8U" type="github">
  <diagram name="Page-1" id="zQC9LpaGA7v2gij-CwEI">
    <mxGraphModel>
      <root>
        <mxCell id="0" />
        <mxCell id="1" parent="0" />
      </root>
    </mxGraphModel>
  </diagram>
</mxfile>
